<svg width="26" height="26" viewBox="0 0 26 26" fill="none" xmlns="http://www.w3.org/2000/svg">
<rect width="26" height="26" rx="13" fill="#222222"/>
<path d="M13 17.3187L9.71409 19.8119C9.55128 19.9443 9.37366 20.0068 9.18124 19.9994C8.98882 19.9921 8.81861 19.9369 8.67059 19.8339C8.52258 19.731 8.40787 19.5912 8.32646 19.4147C8.24505 19.2382 8.24135 19.047 8.31536 18.8411L9.58088 14.7593L6.36158 12.4867C6.18396 12.3691 6.07295 12.2146 6.02855 12.0234C5.98414 11.8322 5.99154 11.6557 6.05075 11.4939C6.10995 11.3321 6.21356 11.1886 6.36158 11.0636C6.50959 10.9386 6.68721 10.8761 6.89443 10.8761H10.8686L12.1563 6.63985C12.2303 6.43392 12.345 6.2758 12.5005 6.16548C12.6559 6.05516 12.8224 6 13 6C13.1776 6 13.3441 6.05516 13.4995 6.16548C13.655 6.2758 13.7697 6.43392 13.8437 6.63985L15.1314 10.8761H19.1056C19.3128 10.8761 19.4904 10.9386 19.6384 11.0636C19.7864 11.1886 19.89 11.3321 19.9493 11.4939C20.0085 11.6557 20.0159 11.8322 19.9715 12.0234C19.927 12.2146 19.816 12.3691 19.6384 12.4867L16.4191 14.7593L17.6846 18.8411C17.7586 19.047 17.7549 19.2382 17.6735 19.4147C17.5921 19.5912 17.4774 19.731 17.3294 19.8339C17.1814 19.9369 17.0112 19.9921 16.8188 19.9994C16.6263 20.0068 16.4487 19.9443 16.2859 19.8119L13 17.3187Z" fill="white"/>
</svg>
