<svg width="34" height="30" viewBox="0 0 34 30" fill="none" xmlns="http://www.w3.org/2000/svg">
<path d="M29.9999 15C29.9999 23.2843 23.2842 30 15 30C6.71572 30 0 23.2843 0 15C0 6.71573 6.71572 0 15 0C23.2842 0 29.9999 6.71573 29.9999 15ZM3.26995 15C3.26995 21.4783 8.52166 26.73 15 26.73C21.4783 26.73 26.73 21.4783 26.73 15C26.73 8.52168 21.4783 3.26996 15 3.26996C8.52166 3.26996 3.26995 8.52168 3.26995 15Z" fill="#222222"/>
<path d="M33.4483 3.10371C28.3361 4.2244 26.2932 5.00026 23.3972 6.89681C20.5013 8.79337 18.6741 10.6977 15.9299 14.0177L14.9579 15.1784L13.8431 13.8288C12.2423 11.9123 10.7047 10.8242 9.44698 11.0401C8.16063 11.283 6.82404 12.2674 7.10749 13.8288C7.21061 14.3968 7.36745 14.6095 8.40721 15.7037C9.44698 16.7979 11.3532 18.8947 12.393 20.0401C13.4328 21.1856 14.8722 23.2761 14.8722 23.2761C14.8722 23.2761 15.3787 22.425 16.1188 21.1038C16.859 19.7825 17.8737 18.0666 18.7598 16.7979C20.018 14.6401 22.0975 12.0219 23.3972 10.7946C24.6969 9.56736 26.9498 7.68554 28.3361 6.6219C29.7225 5.55826 30.9484 4.56923 33.4483 3.10371Z" fill="#9CDF00"/>
</svg>
