<svg width="16" height="14" viewBox="0 0 16 14" fill="none" xmlns="http://www.w3.org/2000/svg">
<path d="M14 7C14 10.866 10.866 14 6.99998 14C3.134 14 0 10.866 0 7C0 3.13401 3.134 0 6.99998 0C10.866 0 14 3.13401 14 7ZM1.52598 7C1.52598 10.0232 3.97677 12.474 6.99998 12.474C10.0232 12.474 12.474 10.0232 12.474 7C12.474 3.97678 10.0232 1.52598 6.99998 1.52598C3.97677 1.52598 1.52598 3.97678 1.52598 7Z" fill="#9CDF00"/>
<path d="M15.6092 1.44827C13.2235 1.97126 12.2701 2.33333 10.9187 3.21838C9.56724 4.10344 8.71454 4.99211 7.43391 6.54148L6.98035 7.08312L6.4601 6.4533C5.71306 5.55895 4.99552 5.05114 4.40857 5.15192C3.80827 5.26528 3.18453 5.72464 3.31681 6.4533C3.36493 6.71838 3.43812 6.81766 3.92334 7.32828C4.40857 7.83891 5.29815 8.81738 5.78338 9.35193C6.2686 9.88647 6.94033 10.8621 6.94033 10.8621C6.94033 10.8621 7.17671 10.4649 7.5221 9.84829C7.86749 9.23172 8.34102 8.43095 8.75456 7.83891C9.3417 6.83192 10.3121 5.6101 10.9187 5.03737C11.5252 4.46464 12.5765 3.58646 13.2235 3.09009C13.8705 2.59373 14.4425 2.13218 15.6092 1.44827Z" fill="white"/>
</svg>
