<svg width="54" height="50" viewBox="0 0 54 50" fill="none" xmlns="http://www.w3.org/2000/svg">
<path d="M40.9598 23.8839H41.8527C41.2947 15.4018 34.5982 8.70537 26.1161 8.14734V9.0402C26.1161 9.70984 25.6697 10.1563 25 10.1563C24.3304 10.1563 23.8839 9.70984 23.8839 9.0402V8.14734C15.4018 8.70537 8.70537 15.4018 8.14734 23.8839H9.0402C9.70984 23.8839 10.1563 24.3304 10.1563 25C10.1563 25.6697 9.70984 26.1161 9.0402 26.1161H8.14734C8.70537 34.5982 15.4018 41.2947 23.8839 41.8527V40.9598C23.8839 40.2902 24.3304 39.8438 25 39.8438C25.6697 39.8438 26.1161 40.2902 26.1161 40.9598V41.8527C34.5982 41.2947 41.2947 34.5982 41.8527 26.1161H40.9598C40.2902 26.1161 39.8438 25.6697 39.8438 25C39.8438 24.3304 40.2902 23.8839 40.9598 23.8839ZM25 28.125C23.6607 28.125 22.5447 27.2322 22.0982 26.1161H16.5179C15.8482 26.1161 15.4018 25.6697 15.4018 25C15.4018 24.3304 15.8482 23.8839 16.5179 23.8839H22.0982C22.4331 22.9911 23.1027 22.4331 23.8839 22.0982V13.2813C23.8839 12.6116 24.3304 12.1652 25 12.1652C25.6697 12.1652 26.1161 12.6116 26.1161 13.2813V22.0982C27.3438 22.5447 28.125 23.6607 28.125 25C28.125 26.7857 26.6741 28.125 25 28.125Z" fill="black"/>
<path d="M52.7902 21.317C52.3437 20.8705 51.6741 20.8705 51.2277 21.317L49.7768 22.7679C48.6607 10.0446 37.9464 0 25 0C11.1607 0 0 11.2723 0 25C0 38.7277 11.1607 50 25 50C35.2679 50 44.308 43.8616 48.1027 34.375C48.3259 33.817 48.1027 33.1473 47.433 32.9241C46.875 32.7009 46.2054 32.9241 45.9821 33.5937C42.5223 42.1875 34.2634 47.7679 24.8884 47.7679C12.3884 47.7679 2.12054 37.6116 2.12054 25C2.12054 12.5 12.2768 2.23214 24.8884 2.23214C36.4955 2.23214 46.2054 11.0491 47.433 22.3214L46.317 21.2054C45.8705 20.7589 45.2009 20.7589 44.7545 21.2054C44.308 21.6518 44.308 22.3214 44.7545 22.7679L47.6562 25.6696C47.9911 26.0045 48.3259 26.1161 48.7723 26.1161C49.2187 26.1161 49.5536 26.0045 49.8884 25.6696L52.7902 22.7679C53.2366 22.433 53.2366 21.6518 52.7902 21.317Z" fill="black"/>
</svg>
