<svg width="50" height="50" viewBox="0 0 50 50" fill="none" xmlns="http://www.w3.org/2000/svg">
<g id="Group">
<path id="Vector" d="M32.7933 11.2584C32.7364 11.1892 32.6937 11.1093 32.6676 11.0235C32.6415 10.9377 32.6326 10.8476 32.6414 10.7583C32.6502 10.6691 32.6766 10.5824 32.7189 10.5034C32.7612 10.4243 32.8187 10.3543 32.8881 10.2975C33.1791 10.0582 33.6088 10.1012 33.848 10.3922L36.3969 13.4997L42.1274 6.60997C42.3686 6.32091 42.7993 6.28087 43.0883 6.52208C43.2275 6.63779 43.315 6.80399 43.3316 6.98416C43.3483 7.16434 43.2927 7.34377 43.1772 7.48303L36.9174 15.0075C36.8533 15.0844 36.7731 15.1462 36.6825 15.1885C36.5919 15.2309 36.493 15.2528 36.393 15.2526H36.391C36.1869 15.2526 35.9945 15.1608 35.8656 15.0036L32.7933 11.2584ZM49.6089 35.6395C49.1499 38.1034 48.2358 40.3798 47.0239 42.0849L47.7954 49.2441C47.8169 49.4365 47.7544 49.6289 47.6255 49.7734C47.5615 49.8447 47.4832 49.9017 47.3957 49.9408C47.3082 49.9798 47.2135 50 47.1177 50H39.8041C39.4604 50 39.1713 49.7451 39.1274 49.4053L37.7817 39.0185C37.7787 38.997 37.7768 38.9765 37.7768 38.955C34.183 41.9423 29.7093 43.5663 24.9661 43.5663C20.219 43.5663 15.7444 41.9404 12.1496 38.9501C12.1496 38.9726 12.1476 38.996 12.1447 39.0185L10.799 49.4053C10.7778 49.5697 10.6974 49.7208 10.5728 49.8303C10.4482 49.9398 10.2881 50.0001 10.1222 50H2.80674C2.71093 50 2.6162 49.9798 2.5287 49.9407C2.44121 49.9017 2.36291 49.8446 2.2989 49.7734C2.23489 49.7021 2.18659 49.6181 2.15715 49.5269C2.12771 49.4357 2.11779 49.3394 2.12802 49.2441L2.90244 42.0849C1.69052 40.3798 0.776448 38.1034 0.31746 35.6395C-0.176685 32.992 -0.0917231 30.3514 0.55672 28.2039C1.31747 25.6883 2.80674 23.9011 4.88098 23.0066C5.13 12.1432 14.0441 3.3824 24.9661 3.3824C26.4925 3.3824 28.014 3.55721 29.4964 3.89706C29.9007 3.41365 30.349 2.9615 30.8402 2.54744C33.0472 0.686092 35.8471 -0.204541 38.7231 0.0396015C41.6 0.282768 44.2085 1.63239 46.0698 3.83846C49.9126 8.39319 49.3335 15.2253 44.7778 19.07C44.7202 19.1189 44.6606 19.1648 44.602 19.2116C44.8716 20.4558 45.0229 21.7302 45.0522 23.0095C47.1226 23.906 48.6099 25.6912 49.3696 28.2039C50.0181 30.3514 50.1031 32.992 49.6089 35.6395ZM28.5062 9.1891C28.5042 9.20179 28.5033 9.21449 28.5003 9.22718L28.4974 9.23988C28.4544 9.49379 28.4222 9.7516 28.3997 10.0114C28.1868 12.5251 28.9652 14.9714 30.5921 16.8991C32.4564 19.1091 35.1273 20.2478 37.8149 20.2478C39.9662 20.2488 42.1284 19.5193 43.8979 18.0271C45.8257 16.4001 47.0054 14.1198 47.2183 11.6061C47.4312 9.09241 46.6528 6.6461 45.0259 4.71835C43.4008 2.7906 41.1215 1.61188 38.6078 1.39899C36.0941 1.1861 33.6478 1.96442 31.7201 3.59041C31.1969 4.03095 30.723 4.52703 30.307 5.06992C30.305 5.07187 30.3031 5.07383 30.3021 5.07578C29.3812 6.27598 28.7659 7.68029 28.5062 9.1891ZM38.891 24.6873H33.9349C31.642 27.6229 30.1771 32.6864 29.6761 36.6376C34.8305 34.8046 38.4223 30.1619 38.891 24.6873ZM11.0519 24.7996C11.5597 30.2196 15.1477 34.8182 20.2581 36.6376C19.7551 32.6864 18.2903 27.6258 16.0031 24.6941L11.0519 24.7996ZM16.1428 17.0134C20.1633 15.9108 24.2532 15.5671 28.3197 15.988C27.3079 14.1423 26.8577 12.0407 27.0403 9.89613C27.0472 9.81508 27.055 9.735 27.0638 9.65492C26.3694 9.55043 25.6663 9.49769 24.9661 9.49769C19.0432 9.49769 13.8244 13.2096 11.8332 18.6775L16.0774 17.0349C16.0988 17.0261 16.1213 17.0192 16.1428 17.0134ZM10.7746 38.9735C10.2716 37.0214 9.56656 35.079 8.88394 33.1981C8.52652 32.2147 8.15737 31.1971 7.81753 30.1815C7.68081 29.7742 7.37905 29.4617 7.00404 29.3016C6.90345 29.3445 6.81068 29.3963 6.72474 29.4588C6.72474 29.4588 6.72377 29.4598 6.72279 29.4598C6.2179 29.826 5.98352 30.4901 6.19153 31.1102L8.58511 38.2577C8.61372 38.3426 8.62529 38.4323 8.61917 38.5217C8.61305 38.611 8.58935 38.6983 8.54943 38.7785C8.50951 38.8587 8.45416 38.9303 8.38655 38.989C8.31894 39.0478 8.24039 39.0926 8.15542 39.121C8.08315 39.1454 8.00991 39.1571 7.93862 39.1571C7.65346 39.1571 7.38686 38.9765 7.29115 38.6913L4.8966 31.5438C4.5509 30.5076 4.84191 29.409 5.55579 28.6736C5.19304 27.3149 4.97407 25.9218 4.90246 24.5174C3.13389 25.5056 2.27646 27.2322 1.86337 28.5984C0.678791 32.5223 1.68564 38.1835 4.15538 41.4872C4.25877 41.6256 4.30588 41.798 4.28722 41.9697L3.56651 48.6348H9.52262L10.7746 38.9735ZM48.063 28.5984C47.6509 27.2342 46.7954 25.5105 45.0317 24.5213C44.9594 25.9305 44.7397 27.3211 44.3774 28.6736C45.0903 29.409 45.3813 30.5067 45.0346 31.5428L42.6401 38.6913C42.5947 38.8269 42.5078 38.9447 42.3919 39.0283C42.2759 39.1119 42.1366 39.157 41.9936 39.1571C41.9213 39.1571 41.8481 39.1454 41.7768 39.121C41.4194 39.0019 41.227 38.6151 41.3461 38.2577L43.7407 31.1102C43.9467 30.493 43.7163 29.8319 43.2163 29.4656C43.2114 29.4617 43.2065 29.4588 43.2026 29.4549C43.1176 29.3944 43.0249 29.3426 42.9262 29.3006C42.7352 29.3809 42.5635 29.501 42.4226 29.6529C42.2816 29.8048 42.1747 29.985 42.1088 30.1815C41.7719 31.1864 41.4067 32.1932 41.0532 33.1668C40.3666 35.0565 39.6576 37.0106 39.1518 38.9735L40.4037 48.6348H46.3579L45.6391 41.9687C45.6206 41.7978 45.6675 41.6249 45.771 41.4872C48.2407 38.1835 49.2476 32.5223 48.063 28.5984Z" fill="black"/>
</g>
</svg>
