<svg width="68" height="50" viewBox="0 0 68 50" fill="none" xmlns="http://www.w3.org/2000/svg">
<g id="Vector">
<path fill-rule="evenodd" clip-rule="evenodd" d="M39.4082 0C25.4554 0 15.8091 11.3455 17.9011 25.3364C19.9387 38.9545 32.6267 50 46.2078 50C60.1605 50 69.8069 38.6545 67.7149 24.6636C65.6773 11.0455 52.9892 0 39.4082 0ZM38.6784 12.7114L40.5664 25.3364C40.6453 25.8719 40.9131 26.3614 41.3211 26.7159L50.0087 34.2909C50.2322 34.4937 50.4939 34.6498 50.7782 34.75C51.0626 34.8502 51.3641 34.8925 51.665 34.8744C51.9659 34.8563 52.2601 34.7783 52.5306 34.6448C52.801 34.5113 53.0422 34.325 53.24 34.0969C53.4377 33.8688 53.5882 33.6035 53.6824 33.3164C53.7767 33.0293 53.8129 32.7262 53.7889 32.4249C53.7649 32.1236 53.6812 31.8301 53.5427 31.5617C53.4043 31.2932 53.2138 31.0551 52.9824 30.8614L44.9249 23.8341L43.1615 12.0364C43.1173 11.7412 43.0156 11.4576 42.8621 11.2019C42.7086 10.9461 42.5064 10.7232 42.267 10.5458C42.0276 10.3685 41.7557 10.2401 41.4668 10.1681C41.1779 10.0961 40.8777 10.0818 40.5834 10.1261C40.289 10.1705 40.0062 10.2725 39.7512 10.4264C39.4961 10.5803 39.2738 10.7831 39.0969 11.0231C38.92 11.2632 38.792 11.5358 38.7202 11.8255C38.6484 12.1152 38.6342 12.4162 38.6784 12.7114ZM2.26653 47.7273H22.6653C23.2664 47.7273 23.8429 47.4878 24.268 47.0616C24.693 46.6354 24.9318 46.0573 24.9318 45.4545C24.9318 44.8518 24.693 44.2737 24.268 43.8475C23.8429 43.4213 23.2664 43.1818 22.6653 43.1818H2.26653C1.66541 43.1818 1.08891 43.4213 0.663851 43.8475C0.238794 44.2737 0 44.8518 0 45.4545C0 46.0573 0.238794 46.6354 0.663851 47.0616C1.08891 47.4878 1.66541 47.7273 2.26653 47.7273ZM4.53306 34.0909H13.5992C14.2003 34.0909 14.7768 33.8515 15.2019 33.4252C15.6269 32.999 15.8657 32.4209 15.8657 31.8182C15.8657 31.2154 15.6269 30.6373 15.2019 30.2111C14.7768 29.7849 14.2003 29.5455 13.5992 29.5455H4.53306C3.93194 29.5455 3.35544 29.7849 2.93038 30.2111C2.50533 30.6373 2.26653 31.2154 2.26653 31.8182C2.26653 32.4209 2.50533 32.999 2.93038 33.4252C3.35544 33.8515 3.93194 34.0909 4.53306 34.0909ZM2.26653 20.4545H11.3327C11.9338 20.4545 12.5103 20.2151 12.9353 19.7889C13.3604 19.3627 13.5992 18.7846 13.5992 18.1818C13.5992 17.5791 13.3604 17.001 12.9353 16.5748C12.5103 16.1485 11.9338 15.9091 11.3327 15.9091H2.26653C1.66541 15.9091 1.08891 16.1485 0.663851 16.5748C0.238794 17.001 0 17.5791 0 18.1818C0 18.7846 0.238794 19.3627 0.663851 19.7889C1.08891 20.2151 1.66541 20.4545 2.26653 20.4545Z" fill="black"/>
<path fill-rule="evenodd" clip-rule="evenodd" d="M20.3988 2.27273H13.5992C12.9981 2.27273 12.4216 2.51218 11.9965 2.9384C11.5715 3.36462 11.3327 3.94269 11.3327 4.54546C11.3327 5.14822 11.5715 5.7263 11.9965 6.15252C12.4216 6.57874 12.9981 6.81819 13.5992 6.81819H20.3988C20.9999 6.81819 21.5764 6.57874 22.0015 6.15252C22.4265 5.7263 22.6653 5.14822 22.6653 4.54546C22.6653 3.94269 22.4265 3.36462 22.0015 2.9384C21.5764 2.51218 20.9999 2.27273 20.3988 2.27273ZM2.26653 6.81819H6.79959C7.40072 6.81819 7.97722 6.57874 8.40227 6.15252C8.82733 5.7263 9.06612 5.14822 9.06612 4.54546C9.06612 3.94269 8.82733 3.36462 8.40227 2.9384C7.97722 2.51218 7.40072 2.27273 6.79959 2.27273H2.26653C1.66541 2.27273 1.08891 2.51218 0.663851 2.9384C0.238794 3.36462 0 3.94269 0 4.54546C0 5.14822 0.238794 5.7263 0.663851 6.15252C1.08891 6.57874 1.66541 6.81819 2.26653 6.81819Z" fill="black"/>
</g>
</svg>
