<svg width="50" height="50" viewBox="0 0 50 50" fill="none" xmlns="http://www.w3.org/2000/svg">
<g id="Group">
<path id="Vector" d="M42.6737 7.32631C32.4313 -2.91619 15.698 -2.34759 6.15177 8.58303V6.25405C6.15177 5.44514 5.49598 4.78934 4.68707 4.78934C3.87816 4.78934 3.22236 5.44514 3.22236 6.25405V12.5035C3.22236 13.3124 3.87816 13.9682 4.68707 13.9682H10.9365C11.7454 13.9682 12.4012 13.3124 12.4012 12.5035C12.4012 11.6946 11.7454 11.0388 10.9365 11.0388H7.90962C12.1215 5.87635 18.2936 2.93405 24.9977 2.93405C37.1662 2.93405 47.066 12.8338 47.066 25.0023C47.066 26.9924 46.8014 28.9644 46.2795 30.8636C46.0652 31.6436 46.5237 32.4498 47.3038 32.664C48.0852 32.8785 48.8903 32.4185 49.1042 31.6398C51.4081 23.2551 49.2723 13.9248 42.6737 7.32631ZM45.3083 36.0364H39.0589C38.25 36.0364 37.5942 36.6922 37.5942 37.5012C37.5942 38.3101 38.25 38.9659 39.0589 38.9659H42.0859C37.8721 44.1169 31.6476 47.0706 24.9977 47.0706C12.8292 47.0706 2.92942 37.1708 2.92942 25.0023C2.92942 22.965 3.20664 20.9476 3.75336 19.0063C3.97268 18.2276 3.51921 17.4186 2.74057 17.1993C1.96183 16.9803 1.15292 17.4335 0.933605 18.2121C0.314131 20.4118 0 22.6965 0 25.0023C0 38.8176 11.1804 50 24.9977 50C32.2667 50 39.0862 46.8841 43.8436 41.4232V43.7506C43.8436 44.5595 44.4994 45.2153 45.3083 45.2153C46.1172 45.2153 46.773 44.5595 46.773 43.7506V37.5012C46.773 36.6922 46.1172 36.0364 45.3083 36.0364Z" fill="#222222"/>
<path id="Vector_2" d="M26.4624 27.1714V42.3687C29.3311 40.7983 31.7772 38.4746 33.5719 35.5976C40.0585 25.1988 35.6097 12.0292 25.6352 7.2067C25.4364 7.11059 25.2185 7.06067 24.9976 7.06067C24.7768 7.06067 24.5589 7.11059 24.3601 7.2067C17.8543 10.3521 13.3777 17.3016 13.3777 25.0023C13.3777 32.3953 17.4976 39.0649 23.533 42.3687V33.4208L19.275 29.1628C18.703 28.5909 18.703 27.6634 19.275 27.0914C19.8469 26.5195 20.7743 26.5195 21.3464 27.0914L23.533 29.278V17.1905C23.533 16.3816 24.1888 15.7258 24.9977 15.7258C25.8066 15.7258 26.4624 16.3816 26.4624 17.1905V23.0286L28.6491 20.8419C29.221 20.2699 30.1485 20.2699 30.7205 20.8419C31.2925 21.4138 31.2925 22.3412 30.7205 22.9133L26.4624 27.1714Z" fill="#222222"/>
</g>
</svg>
