<svg width="40" height="50" viewBox="0 0 40 50" fill="none" xmlns="http://www.w3.org/2000/svg">
<path id="verified_user" d="M17.375 26.7089L13.875 23.1646C13.375 22.6582 12.7917 22.4051 12.125 22.4051C11.4583 22.4051 10.875 22.6582 10.375 23.1646C9.875 23.6709 9.625 24.2722 9.625 24.9684C9.625 25.6646 9.875 26.2658 10.375 26.7722L15.625 32.1519C16.125 32.6582 16.7083 32.9114 17.375 32.9114C18.0417 32.9114 18.625 32.6582 19.125 32.1519L29.75 21.3924C30.25 20.8861 30.5 20.2848 30.5 19.5886C30.5 18.8924 30.25 18.2911 29.75 17.7848C29.25 17.2785 28.6562 17.0253 27.9688 17.0253C27.2812 17.0253 26.6875 17.2785 26.1875 17.7848L17.375 26.7089ZM20 50C19.7083 50 19.4375 49.9789 19.1875 49.9367C18.9375 49.8945 18.6875 49.8312 18.4375 49.7468C12.8125 47.8481 8.33333 44.3354 5 39.2089C1.66667 34.0823 0 28.5654 0 22.6582V10.6962C0 9.64135 0.302083 8.69198 0.90625 7.8481C1.51042 7.00422 2.29167 6.39241 3.25 6.01266L18.25 0.316456C18.8333 0.105485 19.4167 0 20 0C20.5833 0 21.1667 0.105485 21.75 0.316456L36.75 6.01266C37.7083 6.39241 38.4896 7.00422 39.0938 7.8481C39.6979 8.69198 40 9.64135 40 10.6962V22.6582C40 28.5654 38.3333 34.0823 35 39.2089C31.6667 44.3354 27.1875 47.8481 21.5625 49.7468C21.3125 49.8312 21.0625 49.8945 20.8125 49.9367C20.5625 49.9789 20.2917 50 20 50Z" fill="#222222"/>
</svg>
