<svg width="333" height="46" viewBox="0 0 333 46" fill="none" xmlns="http://www.w3.org/2000/svg">
<path d="M11.8927 26.6975V16.4494C11.8927 16.3127 11.8779 16.0614 11.8483 15.6955C11.8188 15.3259 11.7227 14.949 11.5674 14.5572C11.4085 14.1655 11.1683 13.8181 10.8468 13.5114C10.5253 13.2046 10.0707 13.0494 9.48309 13.0494C8.89548 13.0494 8.3633 13.1529 7.88286 13.3635C7.40243 13.5742 6.98482 13.892 6.63373 14.3207C6.27894 14.7494 6.00546 15.2927 5.81329 15.9542C5.61742 16.6157 5.52133 17.3881 5.52133 18.2751V26.7012H0V14.4242C0 13.6888 0.162609 12.9718 0.484133 12.2733C0.805656 11.5748 1.23435 10.954 1.76653 10.4144C2.29871 9.87482 2.91588 9.43873 3.61436 9.10612C4.31285 8.77721 5.04459 8.6109 5.80959 8.6109H11.6894C12.5616 8.6109 13.3561 8.77721 14.0768 9.10612C14.7975 9.43503 15.4109 9.87112 15.9136 10.4144C16.4162 10.954 16.8079 11.5748 17.0851 12.2733C17.3623 12.9718 17.5027 13.6888 17.5027 14.4242V26.7012H11.8927V26.6975Z" fill="black"/>
<path d="M24.3729 19.576L24.3508 19.5538C24.591 20.5849 24.9495 21.361 25.4336 21.8821C26.291 22.7764 27.5882 23.2273 29.3288 23.2273C30.4708 23.2273 31.5425 23.0647 32.5515 22.7395C33.6158 22.4142 34.3328 22.1408 34.6913 21.919V26.0877C34.2995 26.254 33.8856 26.3908 33.4421 26.5054C32.9986 26.6162 32.5367 26.7197 32.0562 26.8084C31.0806 26.9895 29.9977 27.0782 28.8114 27.0782C25.8512 27.0782 23.534 26.2614 21.8525 24.6243C20.9951 23.8149 20.3668 22.8356 19.9603 21.6973C19.5538 20.5553 19.3505 19.2581 19.3505 17.802V15.932C19.3505 15.4368 19.4207 14.912 19.5649 14.354C19.709 13.7996 19.9086 13.249 20.1747 12.7094C20.4371 12.1698 20.7512 11.6525 21.1208 11.1535C21.4903 10.6583 21.8931 10.2222 22.3366 9.84527C22.7801 9.46831 23.2568 9.16897 23.7668 8.94353C24.2769 8.71809 24.8016 8.60722 25.3449 8.60722H30.0754C30.8847 8.60722 31.6201 8.77353 32.2706 9.10244C32.9247 9.43136 33.4828 9.86745 33.9484 10.4107C34.4141 10.9503 34.7726 11.5711 35.0313 12.2696C35.2863 12.9681 35.4156 13.6851 35.4156 14.4205V17.3031C35.4156 17.5877 35.4156 17.8723 35.4267 18.1605C35.4341 18.4451 35.4378 18.7371 35.4378 19.0401V19.4688H24.3766V19.5797L24.3729 19.576ZM24.9347 16.0836H30.9956L31.3578 16.1057C31.343 14.8751 31.0362 13.9364 30.4338 13.2896C29.8499 12.6577 29.0073 12.3435 27.9097 12.3435C26.7529 12.3435 25.8364 12.8314 25.1601 13.807C24.7536 14.3762 24.4764 15.1375 24.3249 16.0836H24.9347Z" fill="black"/>
<path d="M37.2117 9.08027H43.5646L46.4028 21.7638H46.4694L49.5109 9.08027H56.832L59.807 21.7638H59.8735L62.6453 9.08027H68.5251L63.1405 26.6938H56.0892L53.092 13.9438H53.0255L49.692 26.6938H42.6185L37.2117 9.08027Z" fill="black"/>
<path d="M83.9176 20.1562C83.9176 21.1503 84.1282 21.8858 84.5496 22.3699C84.9856 22.8503 85.5991 23.0942 86.3974 23.0942C86.8778 23.0942 87.3139 23.0462 87.7057 22.9538C87.8867 22.9058 88.042 22.854 88.1787 22.7986C88.3154 22.7432 88.4337 22.6914 88.5409 22.6434L88.6776 26.6532C88.5409 26.6975 88.3487 26.7419 88.0937 26.7899C87.8387 26.8343 87.532 26.886 87.1698 26.9488C86.4491 27.0375 85.6767 27.0856 84.8489 27.0856C82.7017 27.0856 81.0941 26.5608 80.0297 25.5075C78.9469 24.4875 78.4073 22.9242 78.4073 20.8214V10.1224C78.4073 9.29831 78.6069 8.49266 79.006 7.71287C79.4052 6.93309 79.8856 6.22721 80.4474 5.59525C81.0091 4.9633 81.6078 4.4459 82.2398 4.03938C82.8717 3.63285 83.4261 3.40003 83.9065 3.3409L83.9287 8.99527H88.4337V12.9385H83.9287V20.1636L83.9176 20.1562Z" fill="#9CDF00"/>
<path d="M102.547 26.6495V23.7003C102.248 24.0921 101.945 24.4542 101.646 24.7868C101.391 25.0751 101.117 25.356 100.825 25.6369C100.533 25.9177 100.26 26.1247 100.005 26.2614C99.0144 26.8047 97.9241 27.0782 96.7378 27.0782C94.6941 27.0782 93.0976 26.5756 91.9409 25.5703C90.7841 24.5799 90.2076 23.2864 90.2076 21.6973C90.2076 19.7607 90.9726 18.2751 92.5063 17.2366C93.2713 16.7266 94.2063 16.3312 95.3113 16.054C96.4163 15.7768 97.695 15.6438 99.1511 15.6585L101.901 15.7029C101.842 15.2668 101.712 14.8455 101.516 14.4427C101.394 14.2172 101.235 13.9918 101.032 13.7664C100.829 13.5409 100.578 13.3229 100.278 13.1122C100.234 13.0827 100.19 13.0531 100.142 13.0235C100.097 12.994 100.053 12.9644 100.005 12.9348C99.9457 12.9053 99.8828 12.872 99.8237 12.8351C99.7646 12.7981 99.6944 12.7648 99.6205 12.7353C99.517 12.7057 99.4098 12.6761 99.3063 12.6466C99.1991 12.617 99.0809 12.5874 98.9441 12.5579H98.8074C98.7039 12.5431 98.5968 12.532 98.4933 12.5246C98.3898 12.5172 98.2604 12.5135 98.1089 12.5135C97.5989 12.5135 97.0926 12.5542 96.59 12.6392C96.0874 12.7205 95.5737 12.8461 95.0452 13.0125C94.5204 13.1788 94.0252 13.3709 93.5596 13.5853C93.0939 13.8033 92.6726 14.0546 92.2993 14.3392V10.0818C93.0496 9.67526 94.0474 9.34635 95.2965 9.09135C95.9433 8.95461 96.5789 8.85113 97.2109 8.77721C97.8428 8.7033 98.4711 8.66634 99.1031 8.66634H101.716C102.588 8.66634 103.379 8.82895 104.092 9.15048C104.805 9.472 105.419 9.90439 105.929 10.444C106.439 10.9835 106.831 11.6044 107.1 12.3029C107.37 13.0014 107.507 13.7183 107.507 14.4538V17.4953H107.485L107.507 26.6643H102.551L102.547 26.6495ZM102.3 18.6077C102.119 18.6816 101.827 18.7186 101.42 18.7186C101.21 18.7186 100.973 18.7223 100.711 18.7296C100.448 18.737 100.16 18.7407 99.8422 18.7407C98.3233 18.7851 97.222 19.0031 96.5309 19.3912C95.8102 19.8236 95.448 20.437 95.448 21.2279C95.448 21.8414 95.6883 22.3255 96.1687 22.684C96.6344 23.0425 97.318 23.2236 98.2198 23.2236C99.4357 23.2236 100.419 22.7764 101.169 21.8784C101.919 20.9951 102.296 20.049 102.296 19.0327V18.6077H102.3Z" fill="#9CDF00"/>
<path d="M121.31 13.8809C120.242 13.5816 119.307 13.5003 118.505 13.6444C117.703 13.7885 117.031 14.1064 116.487 14.6016C115.944 15.0968 115.538 15.7472 115.261 16.5492C114.983 17.3512 114.843 18.2714 114.843 19.3099V26.6975H109.325V15.9542C109.325 15.204 109.488 14.4316 109.809 13.6333C110.131 12.8388 110.563 12.0996 111.103 11.4159C111.642 10.7322 112.267 10.1557 112.973 9.68266C113.679 9.20961 114.414 8.92874 115.179 8.83635C116.111 8.74765 116.99 8.67743 117.814 8.63309C118.176 8.6183 118.535 8.60722 118.897 8.59983C119.259 8.59243 119.607 8.59983 119.943 8.622C120.279 8.64417 120.593 8.67743 120.878 8.72178C121.163 8.76613 121.395 8.82526 121.576 8.90287L121.307 13.8809H121.31Z" fill="#9CDF00"/>
<path d="M133.632 26.6495V23.7003C133.332 24.0921 133.029 24.4542 132.73 24.7868C132.475 25.0751 132.202 25.356 131.91 25.6369C131.618 25.9177 131.344 26.1247 131.089 26.2614C130.099 26.8047 129.008 27.0782 127.822 27.0782C125.778 27.0782 124.182 26.5756 123.025 25.5703C121.868 24.5799 121.292 23.2864 121.292 21.6973C121.292 19.7607 122.057 18.2751 123.591 17.2366C124.356 16.7266 125.291 16.3312 126.396 16.054C127.501 15.7768 128.779 15.6438 130.235 15.6585L132.985 15.7029C132.926 15.2668 132.797 14.8455 132.601 14.4427C132.479 14.2172 132.32 13.9918 132.117 13.7664C131.913 13.5409 131.662 13.3229 131.363 13.1122C131.318 13.0827 131.274 13.0531 131.226 13.0235C131.182 12.994 131.137 12.9644 131.089 12.9348C131.03 12.9053 130.967 12.872 130.908 12.8351C130.849 12.7981 130.779 12.7648 130.705 12.7353C130.601 12.7057 130.494 12.6761 130.391 12.6466C130.283 12.617 130.165 12.5874 130.028 12.5579H129.892C129.788 12.5431 129.681 12.532 129.578 12.5246C129.474 12.5172 129.345 12.5135 129.193 12.5135C128.683 12.5135 128.177 12.5542 127.674 12.6392C127.172 12.7205 126.658 12.8461 126.13 13.0125C125.605 13.1788 125.11 13.3709 124.644 13.5853C124.178 13.8033 123.757 14.0546 123.384 14.3392V10.0818C124.134 9.67526 125.132 9.34635 126.381 9.09135C127.028 8.95461 127.663 8.85113 128.295 8.77721C128.927 8.7033 129.555 8.66634 130.187 8.66634H132.8C133.672 8.66634 134.463 8.82895 135.177 9.15048C135.89 9.472 136.503 9.90439 137.013 10.444C137.523 10.9835 137.915 11.6044 138.185 12.3029C138.455 13.0014 138.591 13.7183 138.591 14.4538V17.4953H138.569L138.591 26.6643H133.635L133.632 26.6495ZM133.384 18.6077C133.203 18.6816 132.911 18.7186 132.505 18.7186C132.294 18.7186 132.057 18.7223 131.795 18.7296C131.533 18.737 131.244 18.7407 130.927 18.7407C129.408 18.7851 128.306 19.0031 127.615 19.3912C126.895 19.8236 126.532 20.437 126.532 21.2279C126.532 21.8414 126.773 22.3255 127.253 22.684C127.719 23.0425 128.402 23.2236 129.304 23.2236C130.52 23.2236 131.503 22.7764 132.253 21.8784C133.003 20.9951 133.38 20.049 133.38 19.0327V18.6077H133.384Z" fill="#9CDF00"/>
<path d="M157.646 26.6975H150.551L145.864 18.2973H145.82V26.6753H145.798V26.6975H140.435V6.48959C140.435 5.96481 140.532 5.44002 140.727 4.91154C140.923 4.38676 141.178 3.88415 141.492 3.40371C141.807 2.92327 142.165 2.4761 142.564 2.06218C142.963 1.64827 143.359 1.28979 143.758 0.979352C144.157 0.672612 144.534 0.432393 144.896 0.258697C145.258 0.0850004 145.565 0 145.82 0V16.8707H145.864L150.732 9.07656H157.151L151.271 17.5249L157.646 26.6938V26.6975Z" fill="#9CDF00"/>
<path d="M170.91 26.6975V16.4494C170.91 16.3127 170.895 16.0614 170.866 15.6955C170.836 15.3259 170.74 14.949 170.585 14.5572C170.426 14.1655 170.186 13.8181 169.864 13.5114C169.543 13.2046 169.088 13.0494 168.5 13.0494C167.913 13.0494 167.381 13.1529 166.9 13.3635C166.42 13.5742 166.002 13.892 165.651 14.3207C165.296 14.7494 165.023 15.2927 164.831 15.9542C164.635 16.6157 164.539 17.3881 164.539 18.2751V26.7012H159.021V14.4242C159.021 13.6888 159.184 12.9718 159.505 12.2733C159.827 11.5748 160.255 10.954 160.788 10.4144C161.32 9.87482 161.937 9.43873 162.635 9.10612C163.334 8.77721 164.066 8.6109 164.831 8.6109H170.71C171.583 8.6109 172.377 8.77721 173.098 9.10612C173.818 9.43503 174.432 9.87112 174.935 10.4144C175.437 10.954 175.829 11.5748 176.106 12.2733C176.383 12.9718 176.524 13.6888 176.524 14.4242V26.7012H170.914L170.91 26.6975Z" fill="#9CDF00"/>
<path d="M189.991 26.6495V23.7003C189.691 24.0921 189.388 24.4542 189.089 24.7868C188.834 25.0751 188.56 25.356 188.268 25.6369C187.977 25.9177 187.703 26.1247 187.448 26.2614C186.458 26.8047 185.367 27.0782 184.181 27.0782C182.137 27.0782 180.541 26.5756 179.384 25.5703C178.227 24.5799 177.651 23.2864 177.651 21.6973C177.651 19.7607 178.416 18.2751 179.95 17.2366C180.715 16.7266 181.65 16.3312 182.755 16.054C183.86 15.7768 185.138 15.6438 186.594 15.6585L189.344 15.7029C189.285 15.2668 189.155 14.8455 188.96 14.4427C188.838 14.2172 188.679 13.9918 188.475 13.7664C188.272 13.5409 188.021 13.3229 187.722 13.1122C187.677 13.0827 187.633 13.0531 187.585 13.0235C187.54 12.994 187.496 12.9644 187.448 12.9348C187.389 12.9053 187.326 12.872 187.267 12.8351C187.208 12.7981 187.138 12.7648 187.064 12.7353C186.96 12.7057 186.853 12.6761 186.75 12.6466C186.642 12.617 186.524 12.5874 186.387 12.5579H186.251C186.147 12.5431 186.04 12.532 185.937 12.5246C185.833 12.5172 185.704 12.5135 185.552 12.5135C185.042 12.5135 184.536 12.5542 184.033 12.6392C183.531 12.7205 183.017 12.8461 182.488 13.0125C181.964 13.1788 181.468 13.3709 181.003 13.5853C180.537 13.8033 180.116 14.0546 179.743 14.3392V10.0818C180.493 9.67526 181.491 9.34635 182.74 9.09135C183.387 8.95461 184.022 8.85113 184.654 8.77721C185.286 8.7033 185.914 8.66634 186.546 8.66634H189.159C190.031 8.66634 190.822 8.82895 191.535 9.15048C192.249 9.472 192.862 9.90439 193.372 10.444C193.882 10.9835 194.274 11.6044 194.544 12.3029C194.814 13.0014 194.95 13.7183 194.95 14.4538V17.4953H194.928L194.95 26.6643H189.994L189.991 26.6495ZM189.743 18.6077C189.562 18.6816 189.27 18.7186 188.863 18.7186C188.653 18.7186 188.416 18.7223 188.154 18.7296C187.892 18.737 187.603 18.7407 187.285 18.7407C185.767 18.7851 184.665 19.0031 183.974 19.3912C183.253 19.8236 182.891 20.437 182.891 21.2279C182.891 21.8414 183.132 22.3255 183.612 22.684C184.078 23.0425 184.761 23.2236 185.663 23.2236C186.879 23.2236 187.862 22.7764 188.612 21.8784C189.362 20.9951 189.739 20.049 189.739 19.0327V18.6077H189.743Z" fill="#9CDF00"/>
<path d="M202.515 20.1562C202.515 21.1503 202.726 21.8858 203.147 22.3699C203.583 22.8503 204.197 23.0942 204.995 23.0942C205.475 23.0942 205.912 23.0462 206.303 22.9538C206.484 22.9058 206.64 22.854 206.776 22.7986C206.913 22.7432 207.031 22.6914 207.139 22.6434L207.275 26.6532C207.139 26.6975 206.946 26.7419 206.691 26.7899C206.436 26.8343 206.13 26.886 205.767 26.9488C205.047 27.0375 204.274 27.0856 203.447 27.0856C201.299 27.0856 199.692 26.5608 198.627 25.5075C197.545 24.4875 197.005 22.9242 197.005 20.8214V10.1224C197.005 9.29831 197.205 8.49266 197.604 7.71287C198.003 6.93309 198.483 6.22721 199.045 5.59525C199.607 4.9633 200.205 4.4459 200.837 4.03938C201.469 3.63285 202.024 3.40003 202.504 3.3409L202.526 8.99527H207.031V12.9385H202.526V20.1636L202.515 20.1562Z" fill="#9CDF00"/>
<path d="M221.345 8.60721C222.217 8.60721 223.011 8.77352 223.732 9.10613C224.453 9.43874 225.07 9.87483 225.58 10.4181C226.09 10.9614 226.485 11.5859 226.763 12.2844C227.04 12.9866 227.18 13.7035 227.18 14.439V26.716H221.57V16.4457C221.57 16.309 221.511 16.0577 221.389 15.6918C221.267 15.3222 221.082 14.9453 220.827 14.5535C220.572 14.1618 220.243 13.8144 219.837 13.5077C219.43 13.2009 218.935 13.0457 218.351 13.0457C217.767 13.0457 217.228 13.1492 216.74 13.3598C216.252 13.5705 215.831 13.892 215.48 14.3281C215.125 14.7642 214.851 15.3075 214.659 15.9616C214.463 16.6157 214.367 17.3844 214.367 18.2714V26.7197H208.805V6.80003C208.805 6.24568 208.905 5.69133 209.108 5.14437C209.312 4.59741 209.574 4.07262 209.896 3.5774C210.217 3.08219 210.587 2.61653 211.001 2.18044C211.414 1.74435 211.821 1.37109 212.227 1.05326C212.634 0.739131 213.022 0.491521 213.399 0.310433C213.772 0.129345 214.09 0.0406494 214.345 0.0406494V11.6635L214.367 11.6414C214.744 11.1277 215.151 10.6842 215.594 10.3072C216.038 9.93026 216.478 9.61982 216.914 9.37961C217.35 9.13939 217.764 8.9546 218.152 8.82526C218.543 8.69591 218.872 8.62569 219.142 8.61091C219.804 8.55178 220.303 8.53699 220.639 8.56656C220.975 8.59612 221.212 8.61091 221.348 8.61091L221.345 8.60721Z" fill="#9CDF00"/>
<path d="M264.078 9.08026C264.798 9.40917 265.416 9.84526 265.926 10.3885C266.436 10.9281 266.831 11.549 267.108 12.2474C267.385 12.9459 267.526 13.6703 267.526 14.4205V26.6753H261.916V16.4272C261.916 16.2905 261.897 16.0392 261.86 15.6733C261.823 15.3038 261.724 14.9268 261.568 14.5351C261.409 14.1433 261.169 13.7959 260.848 13.4892C260.526 13.1825 260.072 13.0272 259.484 13.0272C258.327 13.0272 257.392 13.4559 256.679 14.3096C255.966 15.167 255.611 16.479 255.611 18.2529V26.679H249.979H250.001V16.4309C250.001 16.2942 249.982 16.0429 249.945 15.677C249.909 15.3075 249.812 14.9305 249.654 14.5388C249.495 14.147 249.258 13.7996 248.937 13.4929C248.615 13.1861 248.16 13.0309 247.577 13.0309C246.993 13.0309 246.46 13.1344 245.984 13.3451C245.503 13.5557 245.089 13.8735 244.738 14.3022C244.387 14.7309 244.114 15.2742 243.918 15.9357C243.722 16.5973 243.626 17.3696 243.626 18.2566V26.6827H238.064V14.4279C238.064 13.6777 238.227 12.9533 238.548 12.2548C238.87 11.5564 239.302 10.9355 239.842 10.3959C240.381 9.85635 241.002 9.42026 241.7 9.08765C242.399 8.75874 243.131 8.59243 243.896 8.59243H248.626C249.317 8.59243 249.934 8.67743 250.485 8.85113C251.032 9.02482 251.512 9.23548 251.926 9.48309C252.34 9.7307 252.688 10.0042 252.972 10.3035C253.257 10.6029 253.482 10.8727 253.649 11.1129C253.874 10.7987 254.173 10.4846 254.55 10.1779C254.927 9.87113 255.337 9.60135 255.788 9.36852C256.239 9.13569 256.701 8.94721 257.174 8.80678C257.647 8.66265 258.08 8.59243 258.468 8.59243H261.69C262.562 8.59243 263.357 8.75874 264.078 9.08765V9.08026Z" fill="black"/>
<path d="M287.841 17.9129C287.841 20.692 286.991 22.9131 285.295 24.5799C283.628 26.2466 281.399 27.0819 278.605 27.0819C275.812 27.0819 273.576 26.2466 271.894 24.5799C270.198 22.9131 269.348 20.692 269.348 17.9129C269.348 15.1338 270.198 12.8905 271.894 11.2237C272.751 10.3663 273.735 9.7196 274.843 9.27612C275.956 8.83264 277.208 8.6109 278.605 8.6109C280.002 8.6109 281.252 8.83264 282.357 9.27612C283.462 9.7196 284.441 10.37 285.295 11.2237C286.991 12.8905 287.841 15.119 287.841 17.9129ZM282.549 17.9129C282.549 16.2757 282.212 15.0081 281.536 14.1064C280.845 13.1898 279.869 12.7316 278.609 12.7316C277.349 12.7316 276.362 13.1898 275.66 14.1064C274.984 15.0081 274.647 16.2757 274.647 17.9129C274.647 19.5501 274.991 20.7586 275.682 21.6751C276.388 22.6064 277.364 23.0721 278.609 23.0721C279.855 23.0721 280.838 22.6064 281.514 21.6751C282.205 20.7586 282.549 19.5057 282.549 17.9129Z" fill="black"/>
<path d="M295.184 20.1562C295.184 21.1503 295.395 21.8858 295.816 22.3699C296.252 22.8503 296.866 23.0942 297.664 23.0942C298.144 23.0942 298.581 23.0462 298.972 22.9538C299.153 22.9058 299.309 22.854 299.445 22.7986C299.582 22.7432 299.7 22.6914 299.808 22.6434L299.944 26.6532C299.808 26.6975 299.615 26.7419 299.36 26.7899C299.105 26.8343 298.799 26.886 298.436 26.9488C297.716 27.0375 296.943 27.0856 296.116 27.0856C293.968 27.0856 292.361 26.5608 291.296 25.5075C290.214 24.4875 289.674 22.9242 289.674 20.8214V10.1224C289.674 9.29831 289.874 8.49266 290.273 7.71287C290.672 6.93309 291.152 6.22721 291.714 5.59525C292.276 4.9633 292.874 4.4459 293.506 4.03938C294.138 3.63285 294.693 3.40003 295.173 3.3409L295.195 8.99527H299.7V12.9385H295.195V20.1636L295.184 20.1562Z" fill="black"/>
<path d="M319.062 17.9129C319.062 20.692 318.212 22.9131 316.516 24.5799C314.849 26.2466 312.62 27.0819 309.826 27.0819C307.033 27.0819 304.797 26.2466 303.115 24.5799C301.419 22.9131 300.569 20.692 300.569 17.9129C300.569 15.1338 301.419 12.8905 303.115 11.2237C303.973 10.3663 304.956 9.7196 306.064 9.27612C307.177 8.83264 308.43 8.6109 309.826 8.6109C311.223 8.6109 312.473 8.83264 313.578 9.27612C314.683 9.7196 315.662 10.37 316.516 11.2237C318.212 12.8905 319.062 15.119 319.062 17.9129ZM313.77 17.9129C313.77 16.2757 313.433 15.0081 312.757 14.1064C312.066 13.1898 311.09 12.7316 309.83 12.7316C308.57 12.7316 307.583 13.1898 306.881 14.1064C306.205 15.0081 305.868 16.2757 305.868 17.9129C305.868 19.5501 306.212 20.7586 306.903 21.6751C307.609 22.6064 308.585 23.0721 309.83 23.0721C311.076 23.0721 312.059 22.6064 312.735 21.6751C313.426 20.7586 313.77 19.5057 313.77 17.9129Z" fill="black"/>
<path d="M332.555 13.8809C331.487 13.5816 330.552 13.5003 329.75 13.6444C328.948 13.7885 328.275 14.1064 327.732 14.6016C327.189 15.0968 326.782 15.7472 326.505 16.5492C326.228 17.3512 326.087 18.2714 326.087 19.3099V26.6975H320.57V15.9542C320.57 15.204 320.732 14.4316 321.054 13.6333C321.375 12.8388 321.808 12.0996 322.347 11.4159C322.887 10.7322 323.511 10.1557 324.217 9.68266C324.923 9.20961 325.659 8.92874 326.424 8.83635C327.355 8.74765 328.235 8.67743 329.059 8.63309C329.421 8.6183 329.779 8.60722 330.142 8.59983C330.504 8.59243 330.851 8.59983 331.187 8.622C331.524 8.64417 331.838 8.67743 332.122 8.72178C332.407 8.76613 332.64 8.82526 332.821 8.90287L332.551 13.8809H332.555Z" fill="black"/>
<path d="M10.1261 38.2317H6.64851V45.7857H3.48132V38.2317H0V35.933H10.1261V38.2317Z" fill="black"/>
<path d="M30.201 45.7856L28.6488 42.0087H26.7419V45.7856H23.5747V35.9293H31.1841C31.8197 35.9293 32.4332 36.1806 32.8804 36.6315C33.3275 37.0823 33.5825 37.6921 33.5825 38.3315V39.6065C33.5825 40.6228 32.9432 41.5282 31.986 41.8682C31.9602 41.8793 31.9306 41.8867 31.9047 41.8941L33.6343 45.782H30.2047L30.201 45.7856ZM26.7419 39.7063H29.8536C29.8536 39.7063 30.4117 39.7063 30.4117 38.9671C30.4117 38.228 29.8536 38.228 29.8536 38.228H26.7419V39.7063Z" fill="black"/>
<path d="M54.6885 43.8565H50.7674L50.0283 45.7856H46.6357L50.4052 35.9293H55.0433L58.8129 45.7856H55.4203L54.6811 43.8565H54.6885ZM53.8089 41.5578L52.7298 38.7343L51.6507 41.5578H53.8126H53.8089Z" fill="black"/>
<path d="M72.169 45.7856V35.9293H75.3362V45.7856H72.169Z" fill="black"/>
<path d="M100.637 35.933V45.7893H97.5213L97.4696 45.7228L92.5876 39.6508V45.7856H89.4204V35.9293H92.5507L92.5913 35.9773L97.4733 42.0493V35.9293H100.64L100.637 35.933Z" fill="black"/>
<path d="M114.728 45.7856V35.9293H117.896V45.7856H114.728Z" fill="black"/>
<path d="M143.196 35.933V45.7893H140.081L140.029 45.7228L135.147 39.6508V45.7856H131.98V35.9293H135.11L135.151 35.9773L140.033 42.0493V35.9293H143.2L143.196 35.933Z" fill="black"/>
<path d="M168.227 42.0087C167.798 45.5306 165.318 46 162.624 46C159.66 46 156.959 45.4309 156.959 40.8593C156.959 36.2878 159.66 35.7186 162.624 35.7186C165.318 35.7186 167.798 36.1732 168.227 39.71H165.004C164.657 38.2797 163.618 38.0173 162.628 38.0173C161.412 38.0173 160.13 38.4091 160.13 40.8593C160.13 43.3095 161.416 43.7013 162.628 43.7013C163.397 43.7013 164.195 43.5387 164.675 42.7995L162.879 42.3856V40.6191H168.253C168.253 40.6191 168.29 41.4026 168.231 42.005L168.227 42.0087Z" fill="black"/>
<path d="M211.392 42.0456C211.488 42.4522 211.463 42.9437 211.244 43.5387C211.244 43.5387 211.244 43.5424 211.244 43.5461C210.354 45.6748 208.266 45.9963 206.03 45.9963C203.347 45.9963 200.874 45.5307 200.435 42.0419H203.668C204.027 43.3983 205.054 43.6976 206.034 43.6976C206.503 43.6976 207.013 43.62 207.438 43.3909C207.734 43.232 208.077 42.7811 207.807 42.43C207.8 42.4189 207.789 42.4078 207.782 42.4004C207.593 42.1972 207.279 42.1196 207.028 42.0567C206.725 41.9828 203.905 41.5837 203.583 41.5356C203.583 41.5356 201.229 41.3065 200.745 39.5806C200.631 39.1778 200.623 38.7121 200.819 38.1652C201.706 36.0254 203.798 35.7113 206.037 35.7113C208.717 35.7113 211.185 36.1621 211.633 39.6435H208.399C208.033 38.2982 207.013 38.0211 206.041 38.0211C205.298 38.0211 204.803 38.2243 204.515 38.4608C204.289 38.6493 204.086 39.0004 204.297 39.2813C204.478 39.5215 204.995 39.6472 205.324 39.7063L208.495 40.1682C208.495 40.1682 211.004 40.3641 211.403 42.0456H211.392Z" fill="black"/>
<path d="M233.034 42.0087H236.26C235.832 45.5306 233.352 46 230.658 46C227.694 46 224.992 45.4309 224.992 40.8593C224.992 36.2878 227.694 35.7186 230.658 35.7186C233.352 35.7186 235.832 36.1732 236.26 39.71H233.038C232.69 38.2797 231.652 38.0173 230.662 38.0173C229.446 38.0173 228.163 38.4091 228.163 40.8593C228.163 43.3095 229.449 43.7013 230.662 43.7013C231.652 43.7013 232.69 43.4315 233.038 42.0087H233.034Z" fill="black"/>
<path d="M260.693 35.933V45.7893H257.525V42.0124H253.139V45.7893H249.971V35.933H253.139V39.71H257.525V35.933H260.693Z" fill="black"/>
<path d="M285.779 40.8593C285.779 45.4346 283.077 46 280.113 46C277.149 46 274.448 45.4309 274.448 40.8593C274.448 36.2878 277.149 35.7186 280.113 35.7186C283.077 35.7186 285.779 36.2693 285.779 40.8593ZM280.113 43.7013C281.329 43.7013 282.612 43.2985 282.612 40.8593C282.612 38.4202 281.325 38.0173 280.113 38.0173C278.901 38.0173 277.615 38.4091 277.615 40.8593C277.615 43.3095 278.901 43.7013 280.113 43.7013Z" fill="black"/>
<path d="M310.551 40.8593C310.551 45.4346 307.849 46 304.885 46C301.921 46 299.22 45.4309 299.22 40.8593C299.22 36.2878 301.921 35.7186 304.885 35.7186C307.849 35.7186 310.551 36.2693 310.551 40.8593ZM304.885 43.7013C306.101 43.7013 307.384 43.2985 307.384 40.8593C307.384 38.4202 306.098 38.0173 304.885 38.0173C303.673 38.0173 302.387 38.4091 302.387 40.8593C302.387 43.3095 303.673 43.7013 304.885 43.7013Z" fill="black"/>
<path d="M332.825 45.7856H324.31V35.9293H327.477V43.4832H332.821V45.782L332.825 45.7856Z" fill="black"/>
</svg>
